<?xml version="1.0" encoding="UTF-8" standalone="no" ?>
<!DOCTYPE svg PUBLIC "-//W3C//DTD SVG 1.1//EN" "http://www.w3.org/Graphics/SVG/1.1/DTD/svg11.dtd">
<svg xmlns="http://www.w3.org/2000/svg" xmlns:xlink="http://www.w3.org/1999/xlink" version="1.1" width="1080" height="1080" viewBox="0 0 1080 1080" xml:space="preserve">
<desc>Created with Fabric.js 5.2.4</desc>
<defs>
</defs>
<g transform="matrix(1 0 0 1 540 540)" id="9cf405b9-9e39-4c4c-9139-3731e6e04379"  >
<rect style="stroke: none; stroke-width: 1; stroke-dasharray: none; stroke-linecap: butt; stroke-dashoffset: 0; stroke-linejoin: miter; stroke-miterlimit: 4; fill: rgb(255,255,255); fill-rule: nonzero; opacity: 1; visibility: hidden;" vector-effect="non-scaling-stroke"  x="-540" y="-540" rx="0" ry="0" width="1080" height="1080" />
</g>
<g transform="matrix(1 0 0 1 540 540)" id="6b7acd19-d364-44ea-a0fb-aa2ba72c59ed"  >
</g>
<g transform="matrix(2.92 0 0 2.92 540 540)"  >
<g style=""   >
		<g transform="matrix(0.44 0 0 0.44 -87.26 -3.32)" id="SvgjsG1012"  >
<path style="stroke: none; stroke-width: 1; stroke-dasharray: none; stroke-linecap: butt; stroke-dashoffset: 0; stroke-linejoin: miter; stroke-miterlimit: 4; fill: rgb(118,179,157); fill-rule: nonzero; opacity: 1;" vector-effect="non-scaling-stroke"  transform=" translate(-83.01, -56.48)" d="M 90.716 58.23 C 90.82199999999999 58.166999999999994 90.94099999999999 58.135999999999996 91.06099999999999 58.128 L 90.41 49.907 L 74.959 58.80499999999999 L 82.33800000000001 63.05299999999999 L 90.716 58.23 z" stroke-linecap="round" />
</g>
		<g transform="matrix(0.44 0 0 0.44 -101.58 7.05)" id="SvgjsG1012"  >
<polygon style="stroke: none; stroke-width: 1; stroke-dasharray: none; stroke-linecap: butt; stroke-dashoffset: 0; stroke-linejoin: miter; stroke-miterlimit: 4; fill: rgb(118,179,157); fill-rule: nonzero; opacity: 1;" vector-effect="non-scaling-stroke"  points="-12.39,0 -13.17,9.9 13.17,-5.27 4.82,-9.9 " />
</g>
		<g transform="matrix(0.44 0 0 0.44 -95.52 2.6)" id="SvgjsG1012"  >
<path style="stroke: none; stroke-width: 1; stroke-dasharray: none; stroke-linecap: butt; stroke-dashoffset: 0; stroke-linejoin: miter; stroke-miterlimit: 4; fill: rgb(118,179,157); fill-rule: nonzero; opacity: 1;" vector-effect="non-scaling-stroke"  transform=" translate(-64.31, -69.88)" d="M 38.148 49.908 L 37.498000000000005 58.129000000000005 C 37.617000000000004 58.139 37.737 58.168000000000006 37.845000000000006 58.231 L 46.63400000000001 63.292 L 46.635000000000005 63.292 L 91.125 89.858 L 90.34 79.96000000000001 L 38.148 49.908 z" stroke-linecap="round" />
</g>
		<g transform="matrix(0.44 0 0 0.44 -80.09 -3.32)" id="SvgjsG1012"  >
<path style="stroke: none; stroke-width: 1; stroke-dasharray: none; stroke-linecap: butt; stroke-dashoffset: 0; stroke-linejoin: miter; stroke-miterlimit: 4; fill: rgb(118,179,157); fill-rule: nonzero; opacity: 1;" vector-effect="non-scaling-stroke"  transform=" translate(-99.24, -56.48)" d="M 99.914 63.055 L 107.293 58.807 L 91.84 49.908 L 91.19 58.129000000000005 C 91.309 58.13700000000001 91.429 58.168000000000006 91.538 58.231 L 99.914 63.055 z" stroke-linecap="round" />
</g>
		<g transform="matrix(0.44 0 0 0.44 -95.53 -2.51)" id="SvgjsG1012"  >
<path style="stroke: none; stroke-width: 1; stroke-dasharray: none; stroke-linecap: butt; stroke-dashoffset: 0; stroke-linejoin: miter; stroke-miterlimit: 4; fill: rgb(118,179,157); fill-rule: nonzero; opacity: 1;" vector-effect="non-scaling-stroke"  transform=" translate(-64.29, -58.33)" d="M 64.904 53.248 L 73.298 57.861 L 90.482 47.965999999999994 C 90.62 47.79599999999999 90.823 47.67699999999999 91.06099999999999 47.657 C 91.34599999999999 47.635999999999996 91.60799999999999 47.760999999999996 91.773 47.97 L 109.354 58.091 C 109.368 58.099000000000004 109.379 58.111000000000004 109.391 58.118 C 109.417 58.136 109.441 58.151 109.465 58.171 C 109.485 58.187 109.504 58.205999999999996 109.524 58.226 C 109.542 58.244 109.56 58.263 109.577 58.283 C 109.597 58.306000000000004 109.613 58.332 109.63 58.357 C 109.639 58.371 109.64999999999999 58.38 109.66799999999999 58.418 C 109.68199999999999 58.445 109.693 58.473 109.704 58.5 C 109.714 58.521 109.72399999999999 58.547 109.72999999999999 58.57 C 109.73799999999999 58.595 109.743 58.621 109.74799999999999 58.648 C 109.75399999999999 58.673 109.75999999999999 58.701 109.76199999999999 58.726000000000006 C 109.76499999999999 58.75300000000001 109.76399999999998 58.779 109.76399999999998 58.806000000000004 C 109.76399999999998 58.831 109.76499999999999 58.857000000000006 109.76199999999999 58.88400000000001 C 109.75999999999999 58.909000000000006 109.75399999999999 58.937000000000005 109.74799999999999 58.96200000000001 C 109.743 58.98900000000001 109.73799999999999 59.01500000000001 109.72999999999999 59.04000000000001 C 109.72299999999998 59.06300000000002 109.713 59.08700000000001 109.704 59.110000000000014 C 109.693 59.137000000000015 109.68199999999999 59.16500000000001 109.657 59.21500000000001 C 109.652 59.22500000000001 109.643 59.23100000000001 109.637 59.238000000000014 C 109.61 59.283000000000015 109.578 59.32400000000001 109.541 59.363000000000014 C 109.529 59.37700000000002 109.52 59.38800000000001 109.506 59.40000000000001 C 109.46 59.44300000000001 109.41 59.484000000000016 109.348 59.51900000000001 L 91.537 69.777 C 91.409 69.851 91.266 69.886 91.125 69.886 C 90.984 69.886 90.842 69.851 90.716 69.777 L 37.458 38.143 L 1.573 58.801 L 37.43 78.51400000000001 L 53.748000000000005 69.11900000000001 L 46.231 64.94900000000001 L 37.843 69.77700000000002 C 37.716 69.85100000000001 37.574000000000005 69.88800000000002 37.43300000000001 69.88800000000002 C 37.29200000000001 69.88800000000002 37.14900000000001 69.85100000000001 37.022000000000006 69.77700000000002 C 36.20700000000001 69.32600000000002 20.512000000000004 60.670000000000016 19.737000000000005 60.20900000000002 C 19.223000000000006 59.90400000000002 18.623000000000005 59.637000000000015 18.716000000000005 58.93800000000002 C 18.827000000000005 58.09600000000002 19.925000000000004 57.676000000000016 20.577000000000005 57.301000000000016 C 22.591000000000005 56.14100000000002 24.605000000000004 54.98300000000002 26.619000000000007 53.82200000000002 C 28.91400000000001 52.500000000000014 35.694 48.597000000000016 36.78900000000001 47.96700000000001 C 36.92700000000001 47.79700000000001 37.13000000000001 47.67800000000001 37.36800000000001 47.658000000000015 C 37.653000000000006 47.637000000000015 37.915000000000006 47.762000000000015 38.08100000000001 47.97100000000002 L 91.13400000000001 78.51600000000002 L 126.99700000000001 58.807000000000016 L 91.125 38.15 L 64.904 53.248 z" stroke-linecap="round" />
</g>
		<g transform="matrix(0.44 0 0 0.44 -75.75 4.57)" id="SvgjsG1012"  >
<polygon style="stroke: none; stroke-width: 1; stroke-dasharray: none; stroke-linecap: butt; stroke-dashoffset: 0; stroke-linejoin: miter; stroke-miterlimit: 4; fill: rgb(118,179,157); fill-rule: nonzero; opacity: 1;" vector-effect="non-scaling-stroke"  points="17.94,-15.52 -17.15,5.62 -17.94,15.53 17.94,-5.13 " />
</g>
		<g transform="matrix(0.44 0 0 0.44 -110.99 -3.32)" id="SvgjsG1012"  >
<path style="stroke: none; stroke-width: 1; stroke-dasharray: none; stroke-linecap: butt; stroke-dashoffset: 0; stroke-linejoin: miter; stroke-miterlimit: 4; fill: rgb(118,179,157); fill-rule: nonzero; opacity: 1;" vector-effect="non-scaling-stroke"  transform=" translate(-29.32, -56.48)" d="M 21.266 58.807 L 28.647 63.055 L 37.024 58.231 C 37.131 58.168 37.25 58.139 37.37 58.129000000000005 L 36.718999999999994 49.908 L 21.266 58.807 z" stroke-linecap="round" />
</g>
		<g transform="matrix(0.44 0 0 0.44 -115.51 4.57)" id="SvgjsG1012"  >
<polygon style="stroke: none; stroke-width: 1; stroke-dasharray: none; stroke-linecap: butt; stroke-dashoffset: 0; stroke-linejoin: miter; stroke-miterlimit: 4; fill: rgb(118,179,157); fill-rule: nonzero; opacity: 1;" vector-effect="non-scaling-stroke"  points="-18.08,-15.52 -18.08,-5.13 18.08,15.53 17.15,5.62 " />
</g>
		<g transform="matrix(1.52 0 0 1.52 34.41 -0.01)" id="SvgjsG1013"  >
<path style="stroke: none; stroke-width: 1; stroke-dasharray: none; stroke-linecap: butt; stroke-dashoffset: 0; stroke-linejoin: miter; stroke-miterlimit: 4; fill: rgb(84,84,84); fill-rule: nonzero; opacity: 1;" vector-effect="non-scaling-stroke"  transform=" translate(-60.15, -12.5)" d="M 13.88 5 Q 14.16 5 14.370000000000001 5.21 Q 14.580000000000002 5.42 14.580000000000002 5.7 L 14.580000000000002 19.1 Q 14.580000000000002 19.380000000000003 14.370000000000001 19.59 Q 14.16 19.799999999999997 13.88 19.8 L 12.120000000000001 19.8 Q 11.760000000000002 19.8 11.540000000000001 19.52 L 1.7600000000000016 6.119999999999999 Q 1.6400000000000015 5.959999999999999 1.6200000000000014 5.759999999999999 Q 1.6000000000000014 5.559999999999999 1.6900000000000015 5.379999999999999 Q 1.7800000000000016 5.199999999999999 1.9500000000000015 5.099999999999999 Q 2.1200000000000014 4.999999999999998 2.3200000000000016 4.999999999999999 L 4.080000000000002 4.999999999999999 Q 4.240000000000002 4.999999999999999 4.400000000000002 5.069999999999999 Q 4.560000000000002 5.14 4.640000000000002 5.279999999999999 L 11.660000000000002 14.819999999999999 L 11.660000000000002 5.699999999999999 Q 11.660000000000002 5.419999999999999 11.860000000000001 5.209999999999999 Q 12.06 4.999999999999999 12.360000000000001 4.999999999999999 L 13.88 4.999999999999999 z M 3.84 14.7 Q 4.12 14.7 4.33 14.899999999999999 Q 4.54 15.099999999999998 4.54 15.399999999999999 L 4.54 19.099999999999998 Q 4.54 19.38 4.33 19.589999999999996 Q 4.12 19.799999999999994 3.84 19.799999999999997 L 2.32 19.799999999999997 Q 2.04 19.799999999999997 1.8299999999999998 19.589999999999996 Q 1.6199999999999997 19.379999999999995 1.6199999999999999 19.099999999999998 L 1.6199999999999999 15.399999999999999 Q 1.6199999999999999 15.099999999999998 1.8299999999999998 14.899999999999999 Q 2.04 14.7 2.32 14.7 L 3.84 14.7 z M 28.28 5 Q 28.580000000000002 5 28.78 5.21 Q 28.98 5.42 28.98 5.7 L 28.98 7.140000000000001 Q 28.98 7.420000000000001 28.78 7.630000000000001 Q 28.580000000000002 7.840000000000001 28.28 7.840000000000001 L 20.720000000000002 7.840000000000001 L 20.720000000000002 10.9 L 27.400000000000002 10.9 Q 27.700000000000003 10.9 27.900000000000002 11.110000000000001 Q 28.1 11.320000000000002 28.1 11.600000000000001 L 28.1 13.060000000000002 Q 28.1 13.340000000000002 27.900000000000002 13.550000000000002 Q 27.700000000000003 13.760000000000003 27.400000000000002 13.760000000000003 L 20.720000000000002 13.760000000000003 L 20.720000000000002 16.840000000000003 L 28.28 16.840000000000003 Q 28.580000000000002 16.840000000000003 28.78 17.050000000000004 Q 28.98 17.260000000000005 28.98 17.540000000000003 L 28.98 18.980000000000004 Q 28.98 19.260000000000005 28.78 19.470000000000002 Q 28.580000000000002 19.68 28.28 19.680000000000003 L 18.520000000000003 19.680000000000003 Q 18.240000000000002 19.680000000000003 18.030000000000005 19.470000000000002 Q 17.820000000000007 19.26 17.820000000000004 18.980000000000004 L 17.820000000000004 5.700000000000005 Q 17.820000000000004 5.420000000000004 18.030000000000005 5.210000000000004 Q 18.240000000000006 5.000000000000004 18.520000000000003 5.000000000000004 L 28.28 5.000000000000004 z M 38 5 Q 41.28 5 43.38 7.2 Q 45.440000000000005 9.36 45.440000000000005 12.5 Q 45.440000000000005 15.64 43.38 17.8 Q 41.28 20 38 20 Q 34.72 20 32.62 17.8 Q 30.56 15.64 30.56 12.5 Q 30.56 9.36 32.62 7.2 Q 34.72 5 38 5 z M 38 17.14 Q 40.06 17.14 41.32 15.82 Q 42.54 14.540000000000001 42.54 12.51 Q 42.54 10.479999999999999 41.3 9.17 Q 40.059999999999995 7.860000000000001 38 7.859999999999999 Q 35.940000000000005 7.859999999999998 34.7 9.17 Q 33.46 10.480000000000002 33.46 12.51 Q 33.46 14.539999999999997 34.68 15.82 Q 35.94 17.14 38 17.14 z M 57.32 14.1 L 60.34 18.72 Q 60.56 19.08 60.36000000000001 19.439999999999998 Q 60.28000000000001 19.599999999999998 60.11000000000001 19.7 Q 59.940000000000005 19.8 59.760000000000005 19.8 L 57.940000000000005 19.8 Q 57.760000000000005 19.8 57.6 19.71 Q 57.44 19.62 57.36 19.48 L 54.32 14.66 L 50.76 14.66 L 50.76 19.1 Q 50.76 19.380000000000003 50.55 19.59 Q 50.339999999999996 19.799999999999997 50.059999999999995 19.8 L 48.53999999999999 19.8 Q 48.25999999999999 19.8 48.04999999999999 19.59 Q 47.83999999999999 19.38 47.83999999999999 19.1 L 47.83999999999999 12.520000000000001 Q 47.83999999999999 12.240000000000002 48.04999999999999 12.030000000000001 Q 48.25999999999999 11.82 48.53999999999999 11.82 L 54.69999999999999 11.82 Q 56.45999999999999 11.82 57.03999999999999 10.82 Q 57.239999999999995 10.5 57.239999999999995 9.9 Q 57.239999999999995 8.96 56.62 8.42 Q 55.98 7.84 54.779999999999994 7.84 L 48.53999999999999 7.84 Q 48.25999999999999 7.84 48.04999999999999 7.63 Q 47.83999999999999 7.42 47.83999999999999 7.14 L 47.83999999999999 5.699999999999999 Q 47.83999999999999 5.419999999999999 48.04999999999999 5.209999999999999 Q 48.25999999999999 4.999999999999999 48.53999999999999 4.999999999999999 L 54.959999999999994 4.999999999999999 Q 57.3 4.999999999999999 58.699999999999996 6.319999999999999 Q 60.16 7.64 60.16 9.899999999999999 Q 60.16 11.36 59.519999999999996 12.389999999999999 Q 58.879999999999995 13.419999999999998 57.66 13.959999999999999 z M 69.36 5 Q 72.64 5 74.74 7.2 Q 76.8 9.36 76.8 12.5 Q 76.8 15.64 74.74 17.8 Q 72.64 20 69.36 20 Q 66.08 20 63.98 17.8 Q 61.919999999999995 15.64 61.919999999999995 12.5 Q 61.919999999999995 9.36 63.98 7.2 Q 66.08 5 69.36 5 z M 69.36 17.14 Q 71.42 17.14 72.67999999999999 15.82 Q 73.89999999999999 14.540000000000001 73.89999999999999 12.51 Q 73.89999999999999 10.479999999999999 72.66 9.17 Q 71.42 7.860000000000001 69.36 7.859999999999999 Q 67.3 7.859999999999998 66.06 9.17 Q 64.82000000000001 10.480000000000002 64.82000000000001 12.51 Q 64.82000000000001 14.539999999999997 66.04 15.82 Q 67.30000000000001 17.14 69.36 17.14 z M 91.03999999999999 5 Q 91.32 5 91.52999999999999 5.21 Q 91.73999999999998 5.42 91.73999999999998 5.7 L 91.73999999999998 13.26 Q 91.73999999999998 16.18 89.95999999999998 18.009999999999998 Q 88.17999999999998 19.839999999999996 85.38999999999999 19.839999999999996 Q 82.6 19.839999999999996 80.82 18.009999999999998 Q 79.03999999999999 16.18 79.03999999999999 13.259999999999998 L 79.03999999999999 5.699999999999998 Q 79.03999999999999 5.419999999999998 79.24999999999999 5.209999999999998 Q 79.45999999999998 4.999999999999998 79.73999999999998 4.999999999999998 L 81.23999999999998 4.999999999999998 Q 81.51999999999998 4.999999999999998 81.72999999999998 5.209999999999998 Q 81.93999999999997 5.419999999999998 81.93999999999997 5.699999999999998 L 81.93999999999997 13.299999999999997 Q 81.93999999999997 15.159999999999997 82.99999999999997 16.139999999999997 Q 83.89999999999998 16.979999999999997 85.37999999999997 16.979999999999997 Q 86.85999999999996 16.979999999999997 87.77999999999997 16.139999999999997 Q 88.83999999999997 15.139999999999997 88.83999999999997 13.299999999999997 L 88.83999999999997 5.6999999999999975 Q 88.83999999999997 5.419999999999997 89.03999999999998 5.209999999999997 Q 89.23999999999998 4.999999999999997 89.51999999999998 4.999999999999997 L 91.03999999999998 4.999999999999997 z M 104.96000000000001 5 Q 105.24000000000001 5 105.44000000000001 5.21 Q 105.64000000000001 5.42 105.64000000000001 5.7 L 105.64000000000001 7.140000000000001 Q 105.64000000000001 7.420000000000001 105.44000000000001 7.630000000000001 Q 105.24000000000001 7.840000000000001 104.96000000000001 7.840000000000001 L 101.02000000000001 7.840000000000001 L 101.02000000000001 18.98 Q 101.02000000000001 19.26 100.81000000000002 19.47 Q 100.60000000000002 19.679999999999996 100.32000000000002 19.68 L 98.82000000000002 19.68 Q 98.52000000000002 19.68 98.32000000000002 19.47 Q 98.12000000000002 19.259999999999998 98.12000000000002 18.98 L 98.12000000000002 7.84 L 94.18000000000002 7.84 Q 93.90000000000002 7.84 93.69000000000003 7.63 Q 93.48000000000003 7.42 93.48000000000003 7.14 L 93.48000000000003 5.699999999999999 Q 93.48000000000003 5.419999999999999 93.69000000000003 5.209999999999999 Q 93.90000000000002 4.999999999999999 94.18000000000002 4.999999999999999 L 104.96000000000002 4.999999999999999 z M 118 5 Q 118.3 5 118.5 5.21 Q 118.7 5.42 118.7 5.7 L 118.7 7.140000000000001 Q 118.7 7.420000000000001 118.5 7.630000000000001 Q 118.3 7.840000000000001 118 7.840000000000001 L 110.44 7.840000000000001 L 110.44 10.9 L 117.12 10.9 Q 117.42 10.9 117.62 11.110000000000001 Q 117.82000000000001 11.320000000000002 117.82000000000001 11.600000000000001 L 117.82000000000001 13.060000000000002 Q 117.82000000000001 13.340000000000002 117.62 13.550000000000002 Q 117.42 13.760000000000003 117.12 13.760000000000003 L 110.44 13.760000000000003 L 110.44 16.840000000000003 L 118 16.840000000000003 Q 118.3 16.840000000000003 118.5 17.050000000000004 Q 118.7 17.260000000000005 118.7 17.540000000000003 L 118.7 18.980000000000004 Q 118.7 19.260000000000005 118.5 19.470000000000002 Q 118.3 19.68 118 19.680000000000003 L 108.24 19.680000000000003 Q 107.96 19.680000000000003 107.75 19.470000000000002 Q 107.54 19.26 107.54 18.980000000000004 L 107.54 5.700000000000005 Q 107.54 5.420000000000004 107.75 5.210000000000004 Q 107.96 5.000000000000004 108.24 5.000000000000004 L 118 5.000000000000004 z" stroke-linecap="round" />
</g>
</g>
</g>
</svg>